<?xml version="1.0" encoding="UTF-8"?>
<svg version="1.1" xmlns="http://www.w3.org/2000/svg" width="64" height="64">
<path d="M0 0 C0.66 0 1.32 0 2 0 C2 1.32 2 2.64 2 4 C2.80824219 3.96519531 3.61648437 3.93039063 4.44921875 3.89453125 C5.51785156 3.86746094 6.58648437 3.84039063 7.6875 3.8125 C8.74324219 3.77769531 9.79898438 3.74289063 10.88671875 3.70703125 C15.30807699 4.12309382 17.84001926 5.60367658 20.66796875 9.0078125 C21.16941406 9.70648438 21.67085937 10.40515625 22.1875 11.125 C24.31196479 13.69127826 25.43363108 14.8426753 28.671875 15.7421875 C31.13963493 15.97223292 33.52400415 16.07971013 36 16 C35.23721125 20.98687165 32.38558817 23.34313424 28.5078125 26.31982422 C20.92060305 29.95395391 12.22542359 28.84054847 4 28.5625 C2.08729579 28.53089711 0.17452897 28.50287118 -1.73828125 28.47851562 C-15.50383096 28.24808452 -15.50383096 28.24808452 -18 27 C-18.33 27.99 -18.66 28.98 -19 30 C-20.32 29.34 -21.64 28.68 -23 28 C-23 26.68 -23 25.36 -23 24 C-22.34 24 -21.68 24 -21 24 C-20.87625 23.38125 -20.7525 22.7625 -20.625 22.125 C-20 20 -20 20 -18 18 C-16 18 -14 18 -12 18 C-11.34 17.34 -10.68 16.68 -10 16 C-8.68 16 -7.36 16 -6 16 C-5.80083984 15.07767578 -5.80083984 15.07767578 -5.59765625 14.13671875 C-5.33275391 12.92435547 -5.33275391 12.92435547 -5.0625 11.6875 C-4.80146484 10.48673828 -4.80146484 10.48673828 -4.53515625 9.26171875 C-4 7 -4 7 -3 4 C-2.01 4 -1.02 4 0 4 C0 2.68 0 1.36 0 0 Z M0 6 C-0.99 9.3 -1.98 12.6 -3 16 C4.92 16 12.84 16 21 16 C20.67 15.34 20.34 14.68 20 14 C16.7 14 13.4 14 10 14 C10 12.02 10 10.04 10 8 C10.99 7.67 11.98 7.34 13 7 C10.00519083 6.1276588 7.36424089 5.89170234 4.25 5.9375 C2.8475 5.958125 1.445 5.97875 0 6 Z M13 10 C13 10.66 13 11.32 13 12 C14.65 12 16.3 12 18 12 C17.67 11.34 17.34 10.68 17 10 C15.68 10 14.36 10 13 10 Z M-13 25 C-10.32290331 27.67709669 -1.64372221 26.41210684 2.10742188 26.45996094 C3.6884617 26.48641916 5.26933403 26.5271793 6.84960938 26.58300781 C17.84955776 27.11552883 17.84955776 27.11552883 27.59375 22.53125 C29.60133585 20.73044 29.60133585 20.73044 31 19 C31 18.67 31 18.34 31 18 C25.69824834 17.82642848 20.39816344 17.69969072 15.09423828 17.61547852 C13.29186179 17.58036308 11.48968348 17.53265697 9.68798828 17.47192383 C7.09097391 17.3865995 4.49660185 17.34722672 1.8984375 17.31640625 C1.0982016 17.28027725 0.2979657 17.24414825 -0.52651978 17.20692444 C-6.99168088 17.20242874 -9.50203145 19.72603047 -13 25 Z " fill="#02ACA5" transform="translate(26,14)"/>
<path d="M0 0 C0.99 0.33 1.98 0.66 3 1 C1.97088923 3.21654627 0.91765775 5.10869177 -0.5625 7.0625 C-2.18688728 9.04181496 -2.18688728 9.04181496 -3 12 C-4.65 11.67 -6.3 11.34 -8 11 C-8.33 11.99 -8.66 12.98 -9 14 C-10.32 13.34 -11.64 12.68 -13 12 C-13 10.68 -13 9.36 -13 8 C-12.34 8 -11.68 8 -11 8 C-10.87625 7.38125 -10.7525 6.7625 -10.625 6.125 C-10 4 -10 4 -8 2 C-6 2 -4 2 -2 2 C-1.34 1.34 -0.68 0.68 0 0 Z " fill="#00A85A" transform="translate(16,30)"/>
<path d="M0 0 C1.86301634 2.21520299 3.46113745 4.55091662 5 7 C4.67 7.66 4.34 8.32 4 9 C-0.29 8.34 -4.58 7.68 -9 7 C-9 5.02 -9 3.04 -9 1 C-9.33 0.34 -9.66 -0.32 -10 -1 C-5.94336575 -2.15903836 -3.65570002 -2.19342001 0 0 Z M-6 3 C-6 3.66 -6 4.32 -6 5 C-4.35 5 -2.7 5 -1 5 C-1.33 4.34 -1.66 3.68 -2 3 C-3.32 3 -4.64 3 -6 3 Z " fill="#028C97" transform="translate(45,21)"/>
<path d="M0 0 C0.66 0 1.32 0 2 0 C2 1.32 2 2.64 2 4 C5.96 4 9.92 4 14 4 C14 4.66 14 5.32 14 6 C9.38 6 4.76 6 0 6 C-0.66 8.97 -1.32 11.94 -2 15 C-3.32 15.33 -4.64 15.66 -6 16 C-5.68950274 14.56206608 -5.3765224 13.1246682 -5.0625 11.6875 C-4.88847656 10.88699219 -4.71445312 10.08648437 -4.53515625 9.26171875 C-4 7 -4 7 -3 4 C-2.01 4 -1.02 4 0 4 C0 2.68 0 1.36 0 0 Z " fill="#01B08F" transform="translate(26,14)"/>
<path d="M0 0 C1.32 0.66 2.64 1.32 4 2 C2.37982158 3.33918806 0.75370657 4.6711969 -0.875 6 C-2.23238281 7.11375 -2.23238281 7.11375 -3.6171875 8.25 C-6 10 -6 10 -8 10 C-8.33 9.01 -8.66 8.02 -9 7 C-6.03 4.69 -3.06 2.38 0 0 Z " fill="#026D99" transform="translate(57,32)"/>
<path d="M0 0 C0.99 1.32 1.98 2.64 3 4 C2.01 4.33 1.02 4.66 0 5 C-0.33 5.66 -0.66 6.32 -1 7 C0.65 7 2.3 7 4 7 C4.33 7.66 4.66 8.32 5 9 C3.68 8.67 2.36 8.34 1 8 C0.67 8.99 0.34 9.98 0 11 C-1.32 10.34 -2.64 9.68 -4 9 C-4 7.68 -4 6.36 -4 5 C-3.34 5 -2.68 5 -2 5 C-1.7834375 4.0409375 -1.7834375 4.0409375 -1.5625 3.0625 C-1 1 -1 1 0 0 Z " fill="#00AA4B" transform="translate(7,33)"/>
<path d="M0 0 C1.98 0 3.96 0 6 0 C6 1.98 6 3.96 6 6 C4.02 6 2.04 6 0 6 C0 4.02 0 2.04 0 0 Z " fill="#01947E" transform="translate(28,22)"/>
<path d="M0 0 C0.66 0.33 1.32 0.66 2 1 C1.649375 2.093125 1.29875 3.18625 0.9375 4.3125 C-0.33039454 7.90920373 -0.33039454 7.90920373 1 11 C-0.32 11.33 -1.64 11.66 -3 12 C-2.68950274 10.56206608 -2.3765224 9.1246682 -2.0625 7.6875 C-1.88847656 6.88699219 -1.71445312 6.08648437 -1.53515625 5.26171875 C-1 3 -1 3 0 0 Z " fill="#00906C" transform="translate(23,18)"/>
<path d="M0 0 C0.66 0 1.32 0 2 0 C2 0.66 2 1.32 2 2 C2.66 2 3.32 2 4 2 C4 2.99 4 3.98 4 5 C3.34 5 2.68 5 2 5 C2 4.34 2 3.68 2 3 C1.34 3 0.68 3 0 3 C0 3.66 0 4.32 0 5 C-0.66 5 -1.32 5 -2 5 C-2 4.01 -2 3.02 -2 2 C-1.34 2 -0.68 2 0 2 C0 1.34 0 0.68 0 0 Z " fill="#01A197" transform="translate(34,47)"/>
<path d="M0 0 C0.66 0 1.32 0 2 0 C2 0.66 2 1.32 2 2 C2.66 2 3.32 2 4 2 C4 2.99 4 3.98 4 5 C3.34 5 2.68 5 2 5 C2 4.34 2 3.68 2 3 C1.34 3 0.68 3 0 3 C0 3.66 0 4.32 0 5 C-0.66 5 -1.32 5 -2 5 C-2 4.01 -2 3.02 -2 2 C-1.34 2 -0.68 2 0 2 C0 1.34 0 0.68 0 0 Z " fill="#0292A8" transform="translate(46,46)"/>
<path d="M0 0 C0.66 0 1.32 0 2 0 C2 0.66 2 1.32 2 2 C2.66 2 3.32 2 4 2 C4 2.99 4 3.98 4 5 C3.34 5 2.68 5 2 5 C2 4.34 2 3.68 2 3 C1.34 3 0.68 3 0 3 C0 3.66 0 4.32 0 5 C-0.66 5 -1.32 5 -2 5 C-2 4.01 -2 3.02 -2 2 C-1.34 2 -0.68 2 0 2 C0 1.34 0 0.68 0 0 Z " fill="#00C348" transform="translate(7,45)"/>
<path d="M0 0 C0.66 0 1.32 0 2 0 C2 0.66 2 1.32 2 2 C2.66 2 3.32 2 4 2 C4 2.99 4 3.98 4 5 C3.34 5 2.68 5 2 5 C2 4.34 2 3.68 2 3 C1.34 3 0.68 3 0 3 C0 3.66 0 4.32 0 5 C-0.66 5 -1.32 5 -2 5 C-2 4.01 -2 3.02 -2 2 C-1.34 2 -0.68 2 0 2 C0 1.34 0 0.68 0 0 Z " fill="#00B483" transform="translate(19,44)"/>
<path d="M0 0 C0.66 0 1.32 0 2 0 C2 0.66 2 1.32 2 2 C2.66 2 3.32 2 4 2 C4 2.99 4 3.98 4 5 C3.34 5 2.68 5 2 5 C2 4.34 2 3.68 2 3 C1.34 3 0.68 3 0 3 C0 3.66 0 4.32 0 5 C-0.66 5 -1.32 5 -2 5 C-2 4.01 -2 3.02 -2 2 C-1.34 2 -0.68 2 0 2 C0 1.34 0 0.68 0 0 Z " fill="#0284B7" transform="translate(57,40)"/>
<path d="M0 0 C1.98 0 3.96 0 6 0 C6.33 1.65 6.66 3.3 7 5 C4.69 4.34 2.38 3.68 0 3 C0 2.01 0 1.02 0 0 Z " fill="#00DB6C" transform="translate(6,37)"/>
</svg>
